<mxfile host="app.diagrams.net" modified="2022-07-21T01:39:07.003Z" agent="5.0 (Windows NT 10.0; Win64; x64) AppleWebKit/537.36 (KHTML, like Gecko) Chrome/103.0.0.0 Safari/537.36" etag="zYq6TlibSQh-Zvqfsyl3" version="20.1.1" type="github">
  <diagram id="b9IIirGVZ1tD8DAG6mxK" name="Page-1">
    <mxGraphModel dx="780" dy="752" grid="1" gridSize="10" guides="1" tooltips="1" connect="1" arrows="1" fold="1" page="1" pageScale="1" pageWidth="827" pageHeight="1169" math="0" shadow="0">
      <root>
        <mxCell id="0" />
        <mxCell id="1" parent="0" />
        <mxCell id="42wBGViCeTJOvBd8uuLy-22" value="&lt;span style=&quot;color: rgba(0, 0, 0, 0); font-family: monospace; font-size: 0px; text-align: start;&quot;&gt;%3CmxGraphModel%3E%3Croot%3E%3CmxCell%20id%3D%220%22%2F%3E%3CmxCell%20id%3D%221%22%20parent%3D%220%22%2F%3E%3CmxCell%20id%3D%222%22%20value%3D%22%22%20style%3D%22endArrow%3Dclassic%3Bhtml%3D1%3Brounded%3D0%3B%22%20edge%3D%221%22%20parent%3D%221%22%3E%3CmxGeometry%20width%3D%2250%22%20height%3D%2250%22%20relative%3D%221%22%20as%3D%22geometry%22%3E%3CmxPoint%20x%3D%22420%22%20y%3D%22390%22%20as%3D%22sourcePoint%22%2F%3E%3CmxPoint%20x%3D%22560%22%20y%3D%22390%22%20as%3D%22targetPoint%22%2F%3E%3C%2FmxGeometry%3E%3C%2FmxCell%3E%3C%2Froot%3E%3C%2FmxGraphModel%3E&lt;/span&gt;" style="rounded=0;whiteSpace=wrap;html=1;fillColor=#ffe6cc;strokeColor=#d79b00;" parent="1" vertex="1">
          <mxGeometry x="410" y="390" width="20" height="60" as="geometry" />
        </mxCell>
        <mxCell id="42wBGViCeTJOvBd8uuLy-1" value="main.py" style="rounded=0;whiteSpace=wrap;html=1;" parent="1" vertex="1">
          <mxGeometry x="50" y="110" width="120" height="20" as="geometry" />
        </mxCell>
        <mxCell id="42wBGViCeTJOvBd8uuLy-2" value="notice.notice_menu.py" style="rounded=0;whiteSpace=wrap;html=1;" parent="1" vertex="1">
          <mxGeometry x="190" y="110" width="140" height="20" as="geometry" />
        </mxCell>
        <mxCell id="42wBGViCeTJOvBd8uuLy-3" value="notice.notice_controller.py" style="rounded=0;whiteSpace=wrap;html=1;" parent="1" vertex="1">
          <mxGeometry x="334" y="110" width="159" height="20" as="geometry" />
        </mxCell>
        <mxCell id="42wBGViCeTJOvBd8uuLy-4" value="Oracle notice table" style="rounded=0;whiteSpace=wrap;html=1;" parent="1" vertex="1">
          <mxGeometry x="511" y="110" width="120" height="20" as="geometry" />
        </mxCell>
        <mxCell id="42wBGViCeTJOvBd8uuLy-5" value="" style="endArrow=none;dashed=1;html=1;rounded=0;entryX=0.5;entryY=1;entryDx=0;entryDy=0;" parent="1" target="42wBGViCeTJOvBd8uuLy-1" edge="1">
          <mxGeometry width="50" height="50" relative="1" as="geometry">
            <mxPoint x="110" y="480" as="sourcePoint" />
            <mxPoint x="420" y="360" as="targetPoint" />
          </mxGeometry>
        </mxCell>
        <mxCell id="42wBGViCeTJOvBd8uuLy-8" value="" style="endArrow=none;dashed=1;html=1;rounded=0;entryX=0.5;entryY=1;entryDx=0;entryDy=0;" parent="1" edge="1">
          <mxGeometry width="50" height="50" relative="1" as="geometry">
            <mxPoint x="570" y="480" as="sourcePoint" />
            <mxPoint x="570" y="130" as="targetPoint" />
          </mxGeometry>
        </mxCell>
        <mxCell id="42wBGViCeTJOvBd8uuLy-9" value="" style="endArrow=classic;html=1;rounded=0;entryX=-0.15;entryY=0.367;entryDx=0;entryDy=0;entryPerimeter=0;" parent="1" target="c5GyJZJD8FO4MkK4Ok_m-3" edge="1">
          <mxGeometry width="50" height="50" relative="1" as="geometry">
            <mxPoint x="110" y="252" as="sourcePoint" />
            <mxPoint x="170" y="250" as="targetPoint" />
          </mxGeometry>
        </mxCell>
        <mxCell id="42wBGViCeTJOvBd8uuLy-12" value="" style="endArrow=classic;html=1;rounded=0;" parent="1" edge="1">
          <mxGeometry width="50" height="50" relative="1" as="geometry">
            <mxPoint x="270" y="390" as="sourcePoint" />
            <mxPoint x="410" y="390" as="targetPoint" />
          </mxGeometry>
        </mxCell>
        <mxCell id="42wBGViCeTJOvBd8uuLy-13" value="" style="endArrow=classic;html=1;rounded=0;" parent="1" edge="1">
          <mxGeometry width="50" height="50" relative="1" as="geometry">
            <mxPoint x="420" y="390" as="sourcePoint" />
            <mxPoint x="560" y="390" as="targetPoint" />
          </mxGeometry>
        </mxCell>
        <mxCell id="42wBGViCeTJOvBd8uuLy-14" value="" style="endArrow=classic;html=1;rounded=0;exitX=0;exitY=1;exitDx=0;exitDy=0;entryX=1;entryY=0.25;entryDx=0;entryDy=0;" parent="1" source="42wBGViCeTJOvBd8uuLy-21" target="42wBGViCeTJOvBd8uuLy-16" edge="1">
          <mxGeometry width="50" height="50" relative="1" as="geometry">
            <mxPoint x="560" y="440" as="sourcePoint" />
            <mxPoint x="440" y="420" as="targetPoint" />
          </mxGeometry>
        </mxCell>
        <mxCell id="42wBGViCeTJOvBd8uuLy-16" value="&lt;span style=&quot;color: rgba(0, 0, 0, 0); font-family: monospace; font-size: 0px; text-align: start;&quot;&gt;%3CmxGraphModel%3E%3Croot%3E%3CmxCell%20id%3D%220%22%2F%3E%3CmxCell%20id%3D%221%22%20parent%3D%220%22%2F%3E%3CmxCell%20id%3D%222%22%20value%3D%22%22%20style%3D%22endArrow%3Dclassic%3Bhtml%3D1%3Brounded%3D0%3B%22%20edge%3D%221%22%20parent%3D%221%22%3E%3CmxGeometry%20width%3D%2250%22%20height%3D%2250%22%20relative%3D%221%22%20as%3D%22geometry%22%3E%3CmxPoint%20x%3D%22420%22%20y%3D%22390%22%20as%3D%22sourcePoint%22%2F%3E%3CmxPoint%20x%3D%22560%22%20y%3D%22390%22%20as%3D%22targetPoint%22%2F%3E%3C%2FmxGeometry%3E%3C%2FmxCell%3E%3C%2Froot%3E%3C%2FmxGraphModel%3E&lt;/span&gt;" style="rounded=0;whiteSpace=wrap;html=1;fillColor=#fff2cc;strokeColor=#d6b656;" parent="1" vertex="1">
          <mxGeometry x="420" y="410" width="10" height="30" as="geometry" />
        </mxCell>
        <mxCell id="42wBGViCeTJOvBd8uuLy-19" value="&lt;span style=&quot;color: rgba(0, 0, 0, 0); font-family: monospace; font-size: 0px; text-align: start;&quot;&gt;%3CmxGraphModel%3E%3Croot%3E%3CmxCell%20id%3D%220%22%2F%3E%3CmxCell%20id%3D%221%22%20parent%3D%220%22%2F%3E%3CmxCell%20id%3D%222%22%20value%3D%22%22%20style%3D%22endArrow%3Dclassic%3Bhtml%3D1%3Brounded%3D0%3B%22%20edge%3D%221%22%20parent%3D%221%22%3E%3CmxGeometry%20width%3D%2250%22%20height%3D%2250%22%20relative%3D%221%22%20as%3D%22geometry%22%3E%3CmxPoint%20x%3D%22420%22%20y%3D%22390%22%20as%3D%22sourcePoint%22%2F%3E%3CmxPoint%20x%3D%22560%22%20y%3D%22390%22%20as%3D%22targetPoint%22%2F%3E%3C%2FmxGeometry%3E%3C%2FmxCell%3E%3C%2Froot%3E%3C%2FmxGraphModel%3E&lt;/span&gt;" style="rounded=0;whiteSpace=wrap;html=1;fillColor=#ffe6cc;strokeColor=#d79b00;" parent="1" vertex="1">
          <mxGeometry x="255" y="380" width="10" height="30" as="geometry" />
        </mxCell>
        <mxCell id="42wBGViCeTJOvBd8uuLy-20" value="" style="endArrow=none;dashed=1;html=1;rounded=0;entryX=0.5;entryY=1;entryDx=0;entryDy=0;startArrow=none;" parent="1" target="42wBGViCeTJOvBd8uuLy-19" edge="1">
          <mxGeometry width="50" height="50" relative="1" as="geometry">
            <mxPoint x="260" y="480" as="sourcePoint" />
            <mxPoint x="260" y="130" as="targetPoint" />
          </mxGeometry>
        </mxCell>
        <mxCell id="42wBGViCeTJOvBd8uuLy-21" value="&lt;span style=&quot;color: rgba(0, 0, 0, 0); font-family: monospace; font-size: 0px; text-align: start;&quot;&gt;%3CmxGraphModel%3E%3Croot%3E%3CmxCell%20id%3D%220%22%2F%3E%3CmxCell%20id%3D%221%22%20parent%3D%220%22%2F%3E%3CmxCell%20id%3D%222%22%20value%3D%22%22%20style%3D%22endArrow%3Dclassic%3Bhtml%3D1%3Brounded%3D0%3B%22%20edge%3D%221%22%20parent%3D%221%22%3E%3CmxGeometry%20width%3D%2250%22%20height%3D%2250%22%20relative%3D%221%22%20as%3D%22geometry%22%3E%3CmxPoint%20x%3D%22420%22%20y%3D%22390%22%20as%3D%22sourcePoint%22%2F%3E%3CmxPoint%20x%3D%22560%22%20y%3D%22390%22%20as%3D%22targetPoint%22%2F%3E%3C%2FmxGeometry%3E%3C%2FmxCell%3E%3C%2Froot%3E%3C%2FmxGraphModel%3E&lt;/span&gt;" style="rounded=0;whiteSpace=wrap;html=1;fillColor=#ffe6cc;strokeColor=#d79b00;" parent="1" vertex="1">
          <mxGeometry x="560" y="390" width="20" height="30" as="geometry" />
        </mxCell>
        <mxCell id="42wBGViCeTJOvBd8uuLy-23" value="1:init()" style="text;html=1;align=center;verticalAlign=middle;resizable=0;points=[];autosize=1;strokeColor=none;fillColor=none;" parent="1" vertex="1">
          <mxGeometry x="75" y="220" width="60" height="30" as="geometry" />
        </mxCell>
        <mxCell id="42wBGViCeTJOvBd8uuLy-33" value="" style="endArrow=none;dashed=1;html=1;rounded=0;entryX=0.5;entryY=1;entryDx=0;entryDy=0;startArrow=none;" parent="1" source="42wBGViCeTJOvBd8uuLy-19" target="42wBGViCeTJOvBd8uuLy-2" edge="1">
          <mxGeometry width="50" height="50" relative="1" as="geometry">
            <mxPoint x="260" y="440" as="sourcePoint" />
            <mxPoint x="260" y="280" as="targetPoint" />
          </mxGeometry>
        </mxCell>
        <mxCell id="42wBGViCeTJOvBd8uuLy-39" value="2: delete notice_no()" style="text;html=1;align=center;verticalAlign=middle;resizable=0;points=[];autosize=1;strokeColor=none;fillColor=none;" parent="1" vertex="1">
          <mxGeometry x="270" y="360" width="130" height="30" as="geometry" />
        </mxCell>
        <mxCell id="42wBGViCeTJOvBd8uuLy-40" value="3:delete from notice where()" style="text;html=1;align=center;verticalAlign=middle;resizable=0;points=[];autosize=1;strokeColor=none;fillColor=none;" parent="1" vertex="1">
          <mxGeometry x="405" y="360" width="170" height="30" as="geometry" />
        </mxCell>
        <mxCell id="42wBGViCeTJOvBd8uuLy-42" value="5:commit()" style="text;html=1;align=center;verticalAlign=middle;resizable=0;points=[];autosize=1;strokeColor=none;fillColor=none;" parent="1" vertex="1">
          <mxGeometry x="460" y="415" width="80" height="30" as="geometry" />
        </mxCell>
        <mxCell id="c5GyJZJD8FO4MkK4Ok_m-1" value="common.oracle.db.py" style="rounded=0;whiteSpace=wrap;html=1;" parent="1" vertex="1">
          <mxGeometry x="130" y="150" width="120" height="20" as="geometry" />
        </mxCell>
        <mxCell id="c5GyJZJD8FO4MkK4Ok_m-2" value="" style="endArrow=none;dashed=1;html=1;rounded=0;entryX=0.5;entryY=1;entryDx=0;entryDy=0;startArrow=none;" parent="1" source="c5GyJZJD8FO4MkK4Ok_m-3" edge="1">
          <mxGeometry width="50" height="50" relative="1" as="geometry">
            <mxPoint x="190" y="300" as="sourcePoint" />
            <mxPoint x="190" y="160" as="targetPoint" />
          </mxGeometry>
        </mxCell>
        <mxCell id="c5GyJZJD8FO4MkK4Ok_m-3" value="" style="rounded=0;whiteSpace=wrap;html=1;fillColor=#ffe6cc;strokeColor=#d79b00;" parent="1" vertex="1">
          <mxGeometry x="180" y="230" width="20" height="60" as="geometry" />
        </mxCell>
        <mxCell id="c5GyJZJD8FO4MkK4Ok_m-4" value="" style="endArrow=none;dashed=1;html=1;rounded=0;entryX=0.5;entryY=1;entryDx=0;entryDy=0;" parent="1" target="c5GyJZJD8FO4MkK4Ok_m-3" edge="1">
          <mxGeometry width="50" height="50" relative="1" as="geometry">
            <mxPoint x="190" y="300" as="sourcePoint" />
            <mxPoint x="190" y="160" as="targetPoint" />
          </mxGeometry>
        </mxCell>
        <mxCell id="c5GyJZJD8FO4MkK4Ok_m-9" value="" style="endArrow=none;dashed=1;html=1;rounded=0;entryX=0.547;entryY=1;entryDx=0;entryDy=0;exitX=0.088;exitY=0.967;exitDx=0;exitDy=0;exitPerimeter=0;entryPerimeter=0;" parent="1" source="42wBGViCeTJOvBd8uuLy-40" target="42wBGViCeTJOvBd8uuLy-3" edge="1">
          <mxGeometry width="50" height="50" relative="1" as="geometry">
            <mxPoint x="370" y="410" as="sourcePoint" />
            <mxPoint x="420" y="360" as="targetPoint" />
          </mxGeometry>
        </mxCell>
        <mxCell id="c5GyJZJD8FO4MkK4Ok_m-10" value="" style="endArrow=none;dashed=1;html=1;rounded=0;entryX=0.547;entryY=1;entryDx=0;entryDy=0;entryPerimeter=0;" parent="1" edge="1">
          <mxGeometry width="50" height="50" relative="1" as="geometry">
            <mxPoint x="420" y="480" as="sourcePoint" />
            <mxPoint x="419.97299999999996" y="455" as="targetPoint" />
          </mxGeometry>
        </mxCell>
        <mxCell id="c5GyJZJD8FO4MkK4Ok_m-12" value="" style="endArrow=classic;html=1;rounded=0;entryX=0.5;entryY=0.333;entryDx=0;entryDy=0;entryPerimeter=0;" parent="1" edge="1" target="42wBGViCeTJOvBd8uuLy-19">
          <mxGeometry width="50" height="50" relative="1" as="geometry">
            <mxPoint x="110" y="390" as="sourcePoint" />
            <mxPoint x="250" y="390" as="targetPoint" />
          </mxGeometry>
        </mxCell>
        <mxCell id="c5GyJZJD8FO4MkK4Ok_m-16" value="4: display()" style="text;html=1;align=center;verticalAlign=middle;resizable=0;points=[];autosize=1;strokeColor=none;fillColor=none;" parent="1" vertex="1">
          <mxGeometry x="145" y="360" width="80" height="30" as="geometry" />
        </mxCell>
      </root>
    </mxGraphModel>
  </diagram>
</mxfile>
